HIERARCHY
ROOT Hips
{
  OFFSET 5.84602e-005 68.8428 3.50346
  CHANNELS 6 Xposition Yposition Zposition Zrotation Xrotation Yrotation
  JOINT Spine
  {
    OFFSET 0 8.597 -4.6522
    CHANNELS 3 Zrotation Xrotation Yrotation
    JOINT Spine1
    {
      OFFSET 0 7.8454 0.4098
      CHANNELS 3 Zrotation Xrotation Yrotation
      JOINT Spine2
      {
        OFFSET 0 9.7078 -2.1609
        CHANNELS 3 Zrotation Xrotation Yrotation
        JOINT Neck
        {
          OFFSET 0 21.8761 -0.4549
          CHANNELS 3 Zrotation Xrotation Yrotation
          JOINT Head
          {
            OFFSET 0 12.3537 3.3602
            CHANNELS 3 Zrotation Xrotation Yrotation
            End Site
            {
              OFFSET 0.0001 18.9506 0.5657
            }
          }
        }
        JOINT LeftShoulder
        {
          OFFSET 2.2086 21.1115 7.2329
          CHANNELS 3 Zrotation Xrotation Yrotation
          JOINT LeftArm
          {
            OFFSET 13.1193 3.0282 -4.8998
            CHANNELS 3 Zrotation Xrotation Yrotation
            JOINT LeftForeArm
            {
              OFFSET 27.4081 -0.0973053 -0.2375
              CHANNELS 3 Zrotation Xrotation Yrotation
              JOINT LeftHand
              {
                OFFSET 22.8641 0.0662994 -0.1369
                CHANNELS 3 Zrotation Xrotation Yrotation
                JOINT LeftHandIndex1
                {
                  OFFSET 8.8614 0.775009 2.4612
                  CHANNELS 3 Zrotation Xrotation Yrotation
                  JOINT LeftHandIndex2
                  {
                    OFFSET 3.3146 -0.808304 0.5841
                    CHANNELS 3 Zrotation Xrotation Yrotation
                    JOINT LeftHandIndex3
                    {
                      OFFSET 2.2628 -0.552002 0.3989
                      CHANNELS 3 Zrotation Xrotation Yrotation
                      End Site
                      {
                        OFFSET 1.6102 -0.4807 0.2612
                      }
                    }
                  }
                }
                JOINT LeftHandMiddle1
                {
                  OFFSET 8.9937 0.895004 0.2143
                  CHANNELS 3 Zrotation Xrotation Yrotation
                  JOINT LeftHandMiddle2
                  {
                    OFFSET 4.0984 0.0113983 -0.0242
                    CHANNELS 3 Zrotation Xrotation Yrotation
                    JOINT LeftHandMiddle3
                    {
                      OFFSET 2.2716 0.00689697 -0.0138001
                      CHANNELS 3 Zrotation Xrotation Yrotation
                      End Site
                      {
                        OFFSET 2.0404 -0.1441 0.0027
                      }
                    }
                  }
                }
                JOINT LeftHandRing1
                {
                  OFFSET 8.5234 0.597198 -2.0164
                  CHANNELS 3 Zrotation Xrotation Yrotation
                  JOINT LeftHandRing2
                  {
                    OFFSET 3.7188 -0.188293 -0.2328
                    CHANNELS 3 Zrotation Xrotation Yrotation
                    JOINT LeftHandRing3
                    {
                      OFFSET 2.1191 -0.106598 -0.1332
                      CHANNELS 3 Zrotation Xrotation Yrotation
                      End Site
                      {
                        OFFSET 1.8737 -0.2304 -0.0886
                      }
                    }
                  }
                }
                JOINT LeftHandPinky1
                {
                  OFFSET 7.9094 -0.601089 -3.4825
                  CHANNELS 3 Zrotation Xrotation Yrotation
                  JOINT LeftHandPinky2
                  {
                    OFFSET 2.2874 -0.477005 -0.6314
                    CHANNELS 3 Zrotation Xrotation Yrotation
                    JOINT LeftHandPinky3
                    {
                      OFFSET 1.6774 -0.349396 -0.4633
                      CHANNELS 3 Zrotation Xrotation Yrotation
                      End Site
                      {
                        OFFSET 1.4888 -0.4091 -0.3416
                      }
                    }
                  }
                }
                JOINT LeftHandThumb1
                {
                  OFFSET 1.833 -1.3875 1.3896
                  CHANNELS 3 Zrotation Xrotation Yrotation
                  JOINT LeftHandThumb2
                  {
                    OFFSET 3.4129 -1.121 2.5732
                    CHANNELS 3 Zrotation Xrotation Yrotation
                    JOINT LeftHandThumb3
                    {
                      OFFSET 2.2474 -0.804199 1.6192
                      CHANNELS 3 Zrotation Xrotation Yrotation
                      End Site
                      {
                        OFFSET 1.6527 -0.5689 1.1317
                      }
                    }
                  }
                }
              }
            }
          }
        }
        JOINT RightShoulder
        {
          OFFSET -2.2086 21.1115 7.2329
          CHANNELS 3 Zrotation Xrotation Yrotation
          JOINT RightArm
          {
            OFFSET -13.1216 3.0287 -4.9007
            CHANNELS 3 Zrotation Xrotation Yrotation
            JOINT RightForeArm
            {
              OFFSET -27.4081 -0.0973053 -0.2375
              CHANNELS 3 Zrotation Xrotation Yrotation
              JOINT RightHand
              {
                OFFSET -22.8641 0.0664063 -0.1369
                CHANNELS 3 Zrotation Xrotation Yrotation
                JOINT RightHandIndex1
                {
                  OFFSET -8.8614 0.774994 2.4612
                  CHANNELS 3 Zrotation Xrotation Yrotation
                  JOINT RightHandIndex2
                  {
                    OFFSET -3.3146 -0.808304 0.5841
                    CHANNELS 3 Zrotation Xrotation Yrotation
                    JOINT RightHandIndex3
                    {
                      OFFSET -2.2628 -0.552002 0.3989
                      CHANNELS 3 Zrotation Xrotation Yrotation
                      End Site
                      {
                        OFFSET -1.6102 -0.4807 0.2612
                      }
                    }
                  }
                }
                JOINT RightHandMiddle1
                {
                  OFFSET -8.9937 0.894989 0.2143
                  CHANNELS 3 Zrotation Xrotation Yrotation
                  JOINT RightHandMiddle2
                  {
                    OFFSET -4.0984 0.0113983 -0.0242
                    CHANNELS 3 Zrotation Xrotation Yrotation
                    JOINT RightHandMiddle3
                    {
                      OFFSET -2.2716 0.00691223 -0.0138001
                      CHANNELS 3 Zrotation Xrotation Yrotation
                      End Site
                      {
                        OFFSET -2.0404 -0.1441 0.0027
                      }
                    }
                  }
                }
                JOINT RightHandRing1
                {
                  OFFSET -8.5234 0.597198 -2.0164
                  CHANNELS 3 Zrotation Xrotation Yrotation
                  JOINT RightHandRing2
                  {
                    OFFSET -3.7188 -0.188309 -0.2328
                    CHANNELS 3 Zrotation Xrotation Yrotation
                    JOINT RightHandRing3
                    {
                      OFFSET -2.1191 -0.106598 -0.1332
                      CHANNELS 3 Zrotation Xrotation Yrotation
                      End Site
                      {
                        OFFSET -1.8737 -0.2304 -0.0886
                      }
                    }
                  }
                }
                JOINT RightHandPinky1
                {
                  OFFSET -7.9094 -0.601105 -3.4825
                  CHANNELS 3 Zrotation Xrotation Yrotation
                  JOINT RightHandPinky2
                  {
                    OFFSET -2.2874 -0.477005 -0.6314
                    CHANNELS 3 Zrotation Xrotation Yrotation
                    JOINT RightHandPinky3
                    {
                      OFFSET -1.6774 -0.349396 -0.4633
                      CHANNELS 3 Zrotation Xrotation Yrotation
                      End Site
                      {
                        OFFSET -1.4888 -0.4091 -0.3416
                      }
                    }
                  }
                }
                JOINT RightHandThumb1
                {
                  OFFSET -1.833 -1.38751 1.3896
                  CHANNELS 3 Zrotation Xrotation Yrotation
                  JOINT RightHandThumb2
                  {
                    OFFSET -3.41299 -1.12099 2.5732
                    CHANNELS 3 Zrotation Xrotation Yrotation
                    JOINT RightHandThumb3
                    {
                      OFFSET -2.24741 -0.804108 1.6192
                      CHANNELS 3 Zrotation Xrotation Yrotation
                      End Site
                      {
                        OFFSET -1.6527 -0.5689 1.1317
                      }
                    }
                  }
                }
              }
            }
          }
        }
      }
    }
  }
  JOINT RightUpLeg
  {
    OFFSET -9.1966 3.8861 -0.7581
    CHANNELS 3 Zrotation Xrotation Yrotation
    JOINT RightLeg
    {
      OFFSET -0.7359 -41.0265 0
      CHANNELS 3 Zrotation Xrotation Yrotation
      JOINT RightFoot
      {
        OFFSET 0 -40.2855 0
        CHANNELS 3 Zrotation Xrotation Yrotation
        JOINT RightToeBase
        {
          OFFSET 0 -5.6122 11.7359
          CHANNELS 3 Zrotation Xrotation Yrotation
          End Site
          {
            OFFSET 0 0 7.8731
          }
        }
      }
    }
  }
  JOINT LeftUpLeg
  {
    OFFSET 9.1965 3.8864 -0.7581
    CHANNELS 3 Zrotation Xrotation Yrotation
    JOINT LeftLeg
    {
      OFFSET 0.7359 -41.0268 0
      CHANNELS 3 Zrotation Xrotation Yrotation
      JOINT LeftFoot
      {
        OFFSET 0 -40.2855 0
        CHANNELS 3 Zrotation Xrotation Yrotation
        JOINT LeftToeBase
        {
          OFFSET 0 -5.6122 11.7359
          CHANNELS 3 Zrotation Xrotation Yrotation
          End Site
          {
            OFFSET 0 0 7.8731
          }
        }
      }
    }
  }
}
MOTION
Frames:	7
Frame Time:	0.0333333
5.84602e-005 68.8428 3.50346 0 0 -0 0 0 -0 0 0 -0 0 0 -0 0 0 -0 0 0 -0 0 0 -0 0 0 -0 0 0 -0 0 0 -0 0 0 -0 0 0 -0 0 0 -0 0 0 -0 -0.0146107 -8.87603e-005 -2.63497e-007 2.99804e-018 -2.42657e-020 -1.42182e-022 0 0 -0 -0.0187562 -0.001176 5.858e-005 5.06224e-018 3.88251e-019 1.21329e-020 0 0 -0 -0.012269 -0.00324817 0.000675346 -1.74678e-018 3.88251e-019 -0 0 0 -0 0 0 -0 0 0 -0 0 0 -0 0 0 -0 0 0 -0 0 0 -0 0 0 -0 0 0 -0 0 0 -0 0 0 -0 0.0149955 -9.10982e-005 2.64101e-007 -9.69331e-018 1.21329e-020 -4.7394e-023 0 0 -0 0.0189956 -0.00119102 -5.96516e-005 -5.41541e-019 0 2.42657e-020 0 0 -0 0.0122698 -0.00324857 -0.000673756 -2.00796e-019 0 -1.94126e-019 0 0 -0 0 0 -0 0 0 -0 3.39842 1.33031 -0.0637918 -5.65207e-008 0.834868 -0.000436188 -3.39935 -2.16518 -0.0642563 -8.89002e-024 -1.18485e-023 -1.48106e-024 -3.39844 1.35642 0.0640283 -3.18788e-007 0.782166 -0.000588827 3.39931 -2.13858 0.0634662 1.1399e-023 0 -0 
-0.409356 66.5271 4.68547 0 0.0223189 -0 -0.157026 3.33203 -0.0631464 -0.311158 6.66424 -0.117426 -0.311158 6.66425 -0.117426 4.27387e-006 -0.200192 -2.23683e-006 -1.46141e-007 -0.150485 -3.71585e-009 -4.51638 -0.206871 -2.33105 -37.6672 23.3959 -17.4448 -5.1327 -13.5704 -16.9732 -3.93768 -3.28187e-006 -8.10053e-007 -7.15625e-015 3.18055e-015 -0 1.36678e-006 5.33016e-008 5.11608e-007 2.12744e-006 -8.03214e-007 1.08193e-006 -7.15625e-015 3.18055e-015 -0 -0.0145914 -8.68081e-005 -2.9129e-006 2.12616e-006 -8.03359e-007 1.08183e-006 -7.15625e-015 3.18055e-015 -0 -0.0187883 -0.00117893 6.21371e-005 -9.54166e-015 -6.36111e-015 -1.59028e-015 -7.15625e-015 3.18055e-015 -0 -0.0122523 -0.00324046 0.000670517 -7.95139e-015 0 -1.59028e-015 -7.15625e-015 3.18055e-015 -0 1.36678e-006 5.33016e-008 5.11608e-007 2.12744e-006 -8.03214e-007 1.08193e-006 4.51556 -0.206807 2.32924 37.6638 23.3933 17.4442 5.13058 -13.5707 16.9705 3.93571 6.49221e-007 1.09673e-006 -1.59028e-015 0 1.59028e-015 -1.59028e-015 0 1.59028e-015 3.97569e-015 -3.18055e-015 -1.59028e-015 -1.59028e-015 0 1.59028e-015 0.0149885 -9.26494e-005 -2.37643e-006 -9.71577e-007 7.47882e-007 -8.15555e-007 -1.59028e-015 0 1.59028e-015 0.0189372 -0.0011877 -6.30542e-005 1.95093e-007 7.06777e-007 -4.26984e-007 -1.59028e-015 0 1.59028e-015 0.0122934 -0.00325494 -0.00067503 -9.71232e-007 7.48331e-007 -8.15418e-007 -1.59028e-015 0 1.59028e-015 -1.59028e-015 0 1.59028e-015 3.97569e-015 -3.18055e-015 -1.59028e-015 1.46831 -2.89073 -6.7602 1.71187 14.7689 -0.651063 5.22276 -13.189 -1.21599 1.09858e-008 6.25122e-008 8.48358e-007 5.62119 -7.441 8.51143 1.81151 15.9183 -1.78882 -5.63686 -13.3638 0.99636 1.06292e-007 -8.07702e-009 -5.07581e-009 
-0.73385 64.6754 5.62789 0 0 -0 -0.26431 5.8981 -0.135634 -0.518655 11.7967 -0.245713 -0.518655 11.7967 -0.245713 -2.36664e-006 -0.400107 1.14721e-006 -1.38813e-007 -0.267534 6.57986e-009 -8.08372 -0.251618 -4.15732 -55.3961 37.1476 -36.615 -14.7844 -21.7884 -31.7922 -7.00032 4.27352e-006 -1.94486e-006 2.59274e-007 -4.7628e-007 -7.9268e-007 -5.76165e-008 1.0584e-007 1.76151e-007 8.64248e-008 -1.5876e-007 -2.64227e-007 2.59274e-007 -4.7628e-007 -7.9268e-007 -0.0146019 -9.06352e-005 -1.00171e-006 -2.17869e-006 -1.10093e-006 -4.1734e-007 2.59274e-007 -4.7628e-007 -7.9268e-007 -0.0187324 -0.00117022 5.88038e-005 8.64214e-008 -1.58717e-007 -2.64253e-007 2.59274e-007 -4.7628e-007 -7.9268e-007 -0.0122614 -0.0032443 0.000674742 8.6416e-008 -1.58732e-007 -2.64246e-007 2.59274e-007 -4.7628e-007 -7.9268e-007 -5.76165e-008 1.0584e-007 1.76151e-007 8.64248e-008 -1.5876e-007 -2.64227e-007 8.08022 -0.25199 4.15383 55.3924 37.1443 36.6124 14.7802 -21.7898 31.7878 6.99682 -3.93558e-006 -4.58171e-006 2.84177e-008 5.53845e-008 -8.66732e-008 -1.70506e-007 -3.32307e-007 5.20039e-007 -5.68355e-008 -1.10769e-007 1.73346e-007 2.84177e-008 5.53845e-008 -8.66732e-008 0.0150161 -9.86043e-005 -3.2713e-006 -5.68349e-008 -1.10746e-007 1.73361e-007 2.84177e-008 5.53845e-008 -8.66732e-008 0.0190189 -0.00119123 -5.68764e-005 -5.68331e-008 -1.1074e-007 1.73365e-007 2.84177e-008 5.53845e-008 -8.66732e-008 0.012297 -0.00325074 -0.000672436 -5.68296e-008 -1.10751e-007 1.7336e-007 2.84177e-008 5.53845e-008 -8.66732e-008 -1.70506e-007 -3.32307e-007 5.20039e-007 -5.68355e-008 -1.10769e-007 1.73346e-007 -0.792689 -6.01751 -12.045 3.54666 25.4792 -1.32582 11.5255 -21.7328 -2.23524 1.67352e-007 6.91263e-007 5.60667e-006 14.1772 -13.6557 15.3687 4.06485 26.9287 -3.48275 -12.5293 -21.7826 1.77145 -1.24203e-007 -8.40367e-007 1.76719e-008 
-0.780567 64.4198 5.85737 -0 -0.15623 -0 -0.278398 6.16763 -0.147527 -0.545501 12.3359 -0.267047 -0.545501 12.3359 -0.267047 9.25672e-006 -0.600577 -9.35916e-007 1.65888e-007 -0.284253 1.99406e-007 -8.7567 0.187316 -4.46973 -56.9139 38.4426 -39.8684 -16.4778 -22.7162 -33.9887 -7.43786 -1.05024e-006 -3.73276e-007 8.5407e-008 -1.42284e-007 -2.73768e-007 -3.32638e-007 -5.38372e-007 6.68068e-007 -2.8469e-008 4.74279e-008 9.12559e-008 8.5407e-008 -1.42284e-007 -2.73768e-007 -0.0146084 -8.84661e-005 -9.51016e-007 -2.81787e-006 -1.09391e-006 -2.12566e-007 8.5407e-008 -1.42284e-007 -2.73768e-007 -0.0187707 -0.00117771 6.14481e-005 -2.84683e-008 4.74129e-008 9.12639e-008 8.5407e-008 -1.42284e-007 -2.73768e-007 -0.0122566 -0.00324186 0.000675318 -2.84663e-008 4.74182e-008 9.12617e-008 8.5407e-008 -1.42284e-007 -2.73768e-007 -3.32638e-007 -5.38372e-007 6.68068e-007 -2.8469e-008 4.74279e-008 9.12559e-008 8.7449 0.184994 4.46485 56.9114 38.4413 39.8663 16.4737 -22.7182 33.9856 7.43413 3.991e-006 -5.98083e-007 2.58853e-006 -1.00483e-006 9.70603e-009 -1.97155e-007 -3.50947e-007 6.29264e-007 1.40825e-007 2.50677e-007 -4.49474e-007 2.58853e-006 -1.00483e-006 9.70603e-009 0.014999 -9.02343e-005 9.91462e-007 1.40825e-007 2.50618e-007 -4.49507e-007 2.58853e-006 -1.00483e-006 9.70603e-009 0.0190106 -0.00119154 -6.12657e-005 1.40821e-007 2.50602e-007 -4.49518e-007 2.58853e-006 -1.00483e-006 9.70603e-009 0.0122822 -0.00325727 -0.000679185 1.40811e-007 2.50629e-007 -4.49505e-007 2.58853e-006 -1.00483e-006 9.70603e-009 -1.97155e-007 -3.50947e-007 6.29264e-007 1.40825e-007 2.50677e-007 -4.49474e-007 -1.17065 -6.18966 -12.7924 3.87877 26.9754 -1.45351 12.3801 -22.9398 -2.40034 5.4262e-008 2.20019e-007 1.6648e-006 15.4851 -14.2784 16.3758 4.49669 28.4391 -3.76882 -13.5224 -22.959 1.88769 2.09548e-007 -3.33924e-008 -2.25246e-008 
-0.733912 64.6971 5.84921 -0 -0.357103 -0 -0.264234 5.67157 -0.135586 -0.518745 11.3438 -0.246562 -0.518745 11.3438 -0.246562 1.30501e-006 -0.800396 8.72988e-007 -2.19584e-007 -0.267531 1.98538e-008 -8.4682 0.788024 -4.27672 -55.1744 37.0029 -36.4621 -14.6196 -21.8816 -31.6211 -7.00032 3.28013e-006 -9.0929e-007 -2.35961e-006 -7.15751e-007 1.70724e-007 -1.45623e-007 2.6502e-007 4.39616e-007 -6.36111e-015 3.18055e-015 9.54166e-015 -2.35961e-006 -7.15751e-007 1.70724e-007 -0.0146198 -8.80054e-005 1.07209e-006 1.59028e-015 -6.36111e-015 3.18055e-015 -2.35961e-006 -7.15751e-007 1.70724e-007 -0.0187576 -0.00117879 6.5209e-005 -3.18055e-015 3.18055e-015 -3.18055e-015 -2.35961e-006 -7.15751e-007 1.70724e-007 -0.012225 -0.00323558 0.000674713 -7.95139e-016 9.54166e-015 -4.77083e-015 -2.35961e-006 -7.15751e-007 1.70724e-007 -1.45623e-007 2.6502e-007 4.39616e-007 -6.36111e-015 3.18055e-015 9.54166e-015 8.44624 0.783218 4.2706 55.1735 37.0043 36.4612 14.6161 -21.8839 31.6202 6.99682 5.4047e-006 -2.04656e-006 2.11538e-006 -6.79222e-007 -2.80915e-007 5.74488e-008 1.10946e-007 -1.73037e-007 2.01071e-007 3.8831e-007 -6.05629e-007 2.11538e-006 -6.79222e-007 -2.80915e-007 0.0150016 -9.03737e-005 2.21132e-006 2.01069e-007 3.88231e-007 -6.0568e-007 2.11538e-006 -6.79222e-007 -2.80915e-007 0.0189964 -0.00119107 -5.70021e-005 2.01063e-007 3.8821e-007 -6.05695e-007 2.11538e-006 -6.79222e-007 -2.80915e-007 0.0123168 -0.00326154 -0.000678744 2.0105e-007 3.88247e-007 -6.05676e-007 2.11538e-006 -6.79222e-007 -2.80915e-007 5.74488e-008 1.10946e-007 -1.73037e-007 2.01071e-007 3.8831e-007 -6.05629e-007 -0.783415 -5.44421 -12.0154 3.54782 25.4897 -1.32598 11.5251 -21.7373 -2.23486 -5.76476e-015 1.59028e-015 -0 14.1788 -13.1571 15.3562 4.06531 26.9338 -3.48304 -12.5293 -21.7837 1.77133 -4.15041e-007 -1.71653e-006 -1.64484e-006 
-0.733939 64.708 5.95982 -0 -0.535671 -0 -0.264175 5.55797 -0.135556 -0.518754 11.1165 -0.246979 -0.518754 11.1165 -0.246979 8.05226e-007 -1.00021 -2.24269e-007 -1.33167e-007 -0.267535 9.35884e-008 -8.65984 1.30863 -4.33387 -55.0635 36.9307 -36.3854 -14.537 -21.928 -31.5354 -7.00033 -2.89455e-006 -1.17503e-007 -2.26206e-006 -8.67212e-007 -1.07199e-007 3.04535e-006 -4.59165e-007 2.34358e-007 8.78556e-008 -1.59136e-007 -2.63538e-007 -2.26206e-006 -8.67212e-007 -1.07199e-007 -0.0146009 -8.84185e-005 4.4722e-007 8.7855e-008 -1.59102e-007 -2.63558e-007 -2.26206e-006 -8.67212e-007 -1.07199e-007 -0.018768 -0.00118054 6.19757e-005 -2.11727e-006 -1.13245e-006 -5.46587e-007 -2.26206e-006 -8.67212e-007 -1.07199e-007 -0.0122868 -0.00325205 0.000677622 8.78468e-008 -1.59108e-007 -2.63558e-007 -2.26206e-006 -8.67212e-007 -1.07199e-007 3.04535e-006 -4.59165e-007 2.34358e-007 8.78556e-008 -1.59136e-007 -2.63538e-007 8.62865 1.30157 4.32656 55.064 36.9344 36.3854 14.5339 -21.9307 31.5362 6.99682 -2.57125e-006 -2.00718e-006 1.1552e-007 2.22065e-007 -3.45761e-007 3.97569e-015 1.59028e-014 -1.59028e-015 2.59921e-007 4.99646e-007 -7.77961e-007 1.1552e-007 2.22065e-007 -3.45761e-007 0.0150279 -9.25647e-005 -1.51395e-006 2.59919e-007 4.99544e-007 -7.78027e-007 1.1552e-007 2.22065e-007 -3.45761e-007 0.0189784 -0.00118781 -6.13307e-005 2.59911e-007 4.99517e-007 -7.78047e-007 1.1552e-007 2.22065e-007 -3.45761e-007 0.0122923 -0.00325697 -0.000678353 2.59895e-007 4.99564e-007 -7.78022e-007 1.1552e-007 2.22065e-007 -3.45761e-007 3.97569e-015 1.59028e-014 -1.59028e-015 2.59921e-007 4.99646e-007 -7.77961e-007 -0.778841 -5.15735 -12.0006 3.54837 25.4946 -1.32604 11.5248 -21.7395 -2.23468 -4.5906e-008 -2.08759e-007 -1.67027e-006 14.1797 -12.9078 15.35 4.06556 26.9365 -3.48321 -12.5293 -21.7843 1.77126 -4.20164e-007 6.26968e-008 4.10141e-008 
-0.733963 64.719 6.07039 -0 -0.714248 -0 -0.264102 5.44418 -0.135523 -0.518739 10.8888 -0.24739 -0.518739 10.8888 -0.24739 -8.73169e-006 -1.19995 1.83993e-006 2.20107e-007 -0.267532 7.94941e-008 -8.85111 1.82967 -4.38931 -54.9526 36.8587 -36.3087 -14.4543 -21.9743 -31.4496 -7.00034 3.31095e-006 2.70488e-007 -1.47237e-007 2.6543e-007 4.3884e-007 -2.65026e-007 4.77774e-007 7.89913e-007 -1.76684e-007 3.18516e-007 5.26609e-007 -1.47237e-007 2.6543e-007 4.3884e-007 -0.0146042 -8.99412e-005 -1.22605e-006 -1.76683e-007 3.18449e-007 5.26649e-007 -1.47237e-007 2.6543e-007 4.3884e-007 -0.0187431 -0.00117004 5.6752e-005 -1.76677e-007 3.1843e-007 5.26662e-007 -1.47237e-007 2.6543e-007 4.3884e-007 -0.0122364 -0.00324004 0.000678536 -1.76667e-007 3.18461e-007 5.26648e-007 -1.47237e-007 2.6543e-007 4.3884e-007 -2.65026e-007 4.77774e-007 7.89913e-007 -1.76684e-007 3.18516e-007 5.26609e-007 8.8107 1.82037 4.38092 54.9545 36.8647 36.3095 14.4516 -21.9775 31.4521 6.99682 5.15975e-006 4.42789e-007 -5.80745e-008 -1.11118e-007 1.72723e-007 -2.90372e-008 -5.55589e-008 8.63613e-008 -2.32298e-007 -4.44471e-007 6.90891e-007 -5.80745e-008 -1.11118e-007 1.72723e-007 0.0149846 -9.0357e-005 -9.94421e-008 -2.32296e-007 -4.44381e-007 6.90949e-007 -5.80745e-008 -1.11118e-007 1.72723e-007 0.0189978 -0.00119457 -6.53996e-005 -2.32289e-007 -4.44357e-007 6.90967e-007 -5.80745e-008 -1.11118e-007 1.72723e-007 0.012298 -0.00325318 -0.000674421 -2.18304e-006 4.99362e-007 5.10526e-007 -5.80745e-008 -1.11118e-007 1.72723e-007 -2.90372e-008 -5.55589e-008 8.63613e-008 -2.32298e-007 -4.44471e-007 6.90891e-007 -0.774426 -4.87069 -11.9859 3.54897 25.5001 -1.32612 11.5246 -21.7418 -2.23446 4.42549e-008 2.08543e-007 1.67033e-006 14.1806 -12.6584 15.3438 4.06578 26.9391 -3.48335 -12.5294 -21.7849 1.77119 5.04445e-007 -9.34658e-007 -4.29805e-008 
